<?xml version="1.0" encoding="UTF-8"?>
<!-- Generator: Adobe Illustrator 19.2.1, SVG Export Plug-In . SVG Version: 6.00 Build 0)  -->
<svg version="1.1" id="Layer_1" xmlns="http://www.w3.org/2000/svg" xmlns:xlink="http://www.w3.org/1999/xlink" x="0px" y="0px" viewBox="0 0 275 60" style="enable-background:new 0 0 275 60;" xml:space="preserve">
<style type="text/css">
	.st0{fill:url(#SVGID_1_);}
	.st1{fill-rule:evenodd;clip-rule:evenodd;fill:url(#SVGID_2_);}
</style>
<linearGradient id="SVGID_1_" gradientUnits="userSpaceOnUse" x1="137.2115" y1="79.5565" x2="237.2459" y2="-20.4779">
	<stop offset="0" style="stop-color:#E41F28"/>
	<stop offset="0.3908" style="stop-color:#EC2824"/>
	<stop offset="1" style="stop-color:#FF4019"/>
</linearGradient>
<path id="SVGID_9_" class="st0" d="M115.7,17.1h5.6v25.2h-5.6v-9.9h-10v9.9H100V17.1h5.6v10.5h10V17.1z M143.8,39.5  c-2.2,2.1-4.8,3.1-7.7,3.1c-3,0-5.4-0.9-7.3-2.7c-1.9-1.8-2.9-4.3-2.9-7.3c0-3.1,1-5.5,2.9-7.3c2-1.8,4.3-2.7,7-2.7  c2.7,0,4.9,0.8,6.8,2.4c1.9,1.6,2.8,3.8,2.8,6.6v2.9h-14.2c0.2,1.1,0.7,1.9,1.7,2.6c0.9,0.7,2,1,3.2,1c1.9,0,3.5-0.6,4.7-1.9  L143.8,39.5z M139.9,30.7c-0.1-1.2-0.6-2-1.3-2.7c-0.7-0.6-1.7-0.9-2.7-0.9c-1.1,0-2.1,0.3-2.9,1c-0.9,0.7-1.4,1.5-1.6,2.6H139.9  L139.9,30.7z M159.5,27.7c-1.6,0-2.8,0.6-3.6,1.7c-0.8,1.1-1.2,2.7-1.2,4.5v8.4h-5.4V22.9h5.4v2.6c0.7-0.8,1.6-1.5,2.6-2  c1-0.6,2.1-0.8,3.2-0.9l0,5.1H159.5z M183.6,32.6c0,2.8-1,5.2-2.9,7.1c-2,1.9-4.4,2.9-7.4,2.9c-3,0-5.4-1-7.4-2.9  c-2-1.9-2.9-4.3-2.9-7.1s1-5.2,2.9-7.1c2-1.9,4.4-2.9,7.4-2.9c3,0,5.4,1,7.4,2.9C182.6,27.4,183.6,29.8,183.6,32.6z M168.5,32.6  c0,1.6,0.5,2.9,1.4,3.9c0.9,1,2.1,1.5,3.5,1.5c1.4,0,2.6-0.5,3.5-1.5c0.9-1,1.4-2.3,1.4-3.9c0-1.6-0.5-2.9-1.4-3.9  c-0.9-1-2.1-1.5-3.5-1.5c-1.4,0-2.6,0.5-3.5,1.5C168.9,29.7,168.5,31,168.5,32.6z M202,39.1c-1.7,1.9-3.8,2.9-6.4,2.9  c-2.5,0-4.7-0.9-6.4-2.6c-1.7-1.7-2.6-4-2.6-6.9c0-2.9,0.9-5.2,2.7-7.1c1.8-1.8,3.8-2.8,6.2-2.8s4.2,1,5.7,2.9v-2.6h5.4v16.9  c0,1.7-0.3,3.3-0.9,4.6c-0.6,1.3-1.4,2.4-2.4,3.2c-2,1.6-4.4,2.4-7.1,2.4c-1.4,0-2.9-0.2-4.4-0.7c-1.5-0.5-2.8-1.1-4-2l2.1-4.1  c1.8,1.3,3.7,2,5.7,2c2,0,3.6-0.5,4.7-1.5C201.4,42.8,202,41.2,202,39.1z M201.2,32.2c0-1.6-0.4-2.8-1.3-3.7  c-0.9-0.9-1.9-1.3-3.2-1.3c-1.3,0-2.4,0.4-3.3,1.3c-0.9,0.9-1.4,2.1-1.4,3.6c0,1.5,0.5,2.8,1.4,3.7c0.9,1,2,1.4,3.3,1.4  c1.3,0,2.4-0.5,3.3-1.4C200.8,35,201.2,33.8,201.2,32.2z M228.2,42.3h-5.1V40c-1.4,1.8-3.1,2.6-5.2,2.6c-2.1,0-3.8-0.6-5.2-1.8  c-1.4-1.2-2.1-2.8-2.1-4.8c0-2,0.7-3.5,2.2-4.5c1.4-1,3.4-1.5,5.9-1.5h4V30c0-2.1-1.1-3.1-3.3-3.1c-0.9,0-1.9,0.2-3,0.6  c-1,0.4-1.9,0.8-2.7,1.4l-2.4-3.5c2.6-1.9,5.5-2.8,8.7-2.8c2.4,0,4.3,0.6,5.8,1.8c1.5,1.2,2.2,3,2.2,5.6V42.3z M222.8,34.9V34h-3.4  c-2.2,0-3.3,0.7-3.3,2c0,0.7,0.3,1.2,0.8,1.6c0.5,0.4,1.3,0.6,2.2,0.6c1,0,1.8-0.3,2.5-0.9C222.4,36.7,222.8,35.9,222.8,34.9z   M251,31.9v10.5h-5.5V31.7c0-1.5-0.2-2.7-0.7-3.4c-0.5-0.7-1.2-1.1-2.3-1.1s-2,0.4-2.8,1.2c-0.8,0.8-1.2,1.9-1.2,3.4v10.5h-5.4V22.9  h5.4v2.2c1.5-1.7,3.2-2.5,5.1-2.5c1.2,0,2.3,0.4,3.3,1.1c1,0.7,1.8,1.6,2.3,2.6c0.7-1.2,1.8-2.1,3-2.7c1.3-0.7,2.5-1,3.8-1  c2.3,0,4.1,0.7,5.5,2c1.4,1.4,2.1,3.3,2.1,5.9v11.8h-5.5V31.7c0-3-1.1-4.5-3.3-4.5c-1.1,0-2,0.4-2.8,1.2  C251.4,29.2,251,30.4,251,31.9z M269.1,20.4c-0.6-0.6-0.9-1.4-0.9-2.3c0-0.9,0.3-1.6,0.9-2.3c0.6-0.6,1.4-0.9,2.3-0.9  c0.9,0,1.6,0.3,2.3,0.9c0.6,0.6,0.9,1.4,0.9,2.3c0,0.9-0.3,1.6-0.9,2.3c-0.6,0.6-1.4,0.9-2.3,0.9C270.5,21.4,269.7,21,269.1,20.4z   M274.1,42.3h-5.4V22.9h5.4V42.3z"/>
<linearGradient id="SVGID_2_" gradientUnits="userSpaceOnUse" x1="16.8914" y1="51.8109" x2="79.2672" y2="-10.565">
	<stop offset="0" style="stop-color:#E41F28"/>
	<stop offset="0.3908" style="stop-color:#EC2824"/>
	<stop offset="1" style="stop-color:#FF4019"/>
</linearGradient>
<path id="SVGID_13_" class="st1" d="M6.7,29.7l13.1,7.9L76.5,6.7L6.7,29.7z M25.5,52.4l3.4-9.7l0,0l0,0l38.3-28L21.5,39.6L25.5,52.4  z M33.1,49.1l-2.7-1.7l-2.9,6.9L33.1,49.1z M48.4,55.3L81.6,7.5L31.2,44.3L48.4,55.3z M49,59.2l-13.6-8.7l-10.3,9.4l0,0.1l-6.5-19.6  L0,29.1L89.8,0L49,59.2z"/>
</svg>