<svg xmlns="http://www.w3.org/2000/svg" viewBox="0 0 483.27 97.25"><defs><style>.cls-1{fill:none;}.cls-2{fill:#0055d1;}.cls-3{fill:#06f;}</style></defs><title>Asset 1</title><g id="Layer_2" data-name="Layer 2"><g id="Layer_1-2" data-name="Layer 1"><path class="cls-1" d="M441.36,76.56c0,4.43,3.36,8.46,9.54,8.46,8.73,0,16.25-4.16,16.25-16.92v-3L450.09,67.7C445.26,68.5,441.36,71.19,441.36,76.56Z"/><path class="cls-1" d="M175.55,76.56c0,4.43,3.36,8.46,9.54,8.46,8.73,0,16.25-4.16,16.25-16.92v-3L184.28,67.7C179.45,68.5,175.55,71.19,175.55,76.56Z"/><polygon points="122.36 76.56 105.04 29.82 87.84 29.82 114.44 95.23 130.02 95.23 155.68 29.82 139.29 29.82 122.36 76.56"/><path d="M216.66,52.25c0-13-7.66-24.45-27.81-24.45-16.12,0-26.33,10.07-27.54,21.36l14.24,3.22c.67-6.58,5.24-11.82,13.43-11.82,8.6,0,12.36,4.43,12.36,9.94,0,2.28-1.07,4.16-4.84,4.7l-16.79,2.55C168.57,59.37,160,65.82,160,77.5c0,10.34,8.46,19.75,22.16,19.75,10.61,0,17.06-5.37,20.15-10.34a36.39,36.39,0,0,0,.67,8.33h14.51a59.36,59.36,0,0,1-.81-10.48ZM201.34,68.1c0,12.76-7.52,16.92-16.25,16.92-6.18,0-9.54-4-9.54-8.46,0-5.37,3.9-8.06,8.73-8.87l17.06-2.55Z"/><path d="M267.29,27.94c-7.25,0-15,3.09-19.34,10.61V29.82H232.77V95.24h15.58V57.49c0-8.6,4.7-15.45,13.57-15.45,9.81,0,13.43,6.45,13.43,14.51V95.24h15.58V53.86C290.93,39.49,283.28,27.94,267.29,27.94Z"/><polygon points="355 42.98 355 29.82 302.88 29.82 302.88 43.52 335.39 43.52 302.21 81.67 302.21 95.23 355.67 95.23 355.67 81.53 321.42 81.53 355 42.98"/><polygon points="416.25 42.98 416.25 29.82 364.13 29.82 364.13 43.52 396.64 43.52 363.46 81.67 363.46 95.23 416.92 95.23 416.92 81.53 382.67 81.53 416.25 42.98"/><path d="M482.46,84.76V52.25c0-13-7.66-24.45-27.8-24.45-16.12,0-26.33,10.07-27.54,21.36l14.24,3.22c.67-6.58,5.24-11.82,13.43-11.82,8.6,0,12.36,4.43,12.36,9.94,0,2.28-1.07,4.16-4.84,4.7l-16.79,2.55c-11.15,1.61-19.75,8.06-19.75,19.75,0,10.34,8.46,19.75,22.16,19.75,10.61,0,17.06-5.37,20.15-10.34a36.34,36.34,0,0,0,.67,8.33h14.51A59.25,59.25,0,0,1,482.46,84.76ZM467.15,68.1c0,12.76-7.52,16.92-16.25,16.92-6.18,0-9.54-4-9.54-8.46,0-5.37,3.9-8.06,8.73-8.87l17.06-2.55Z"/><path d="M49.23,9l.19-.51C49.35,8.66,49.28,8.84,49.23,9Z"/><path class="cls-2" d="M60.66,12.64,59.13,8.7a13.58,13.58,0,0,0-1.92-3.38,6,6,0,0,0-7.8,3.18L49.22,9l-3.15,8.45L75.22,95.24h17.6Z"/><path class="cls-3" d="M52.12,1.26h0A13.63,13.63,0,0,0,33.69,8.7L0,95.24H17.06L49.42,8.49a6,6,0,0,1,7.79-3.17A13.69,13.69,0,0,0,52.12,1.26Z"/></g></g></svg>